M48
INCH
T01C0.0150
T02C0.0200
T03C0.0800
T04C0.0380
T05C0.1181
%
T01
X-021795Y+007600
X-021795Y+004922
X-018606Y+007600
X-016456Y+006066
X-018681Y+009479
X-015740Y+002260
X-017341Y+008789
X-006950Y+005760
X-008410Y+001980
X-018321Y+005189
X-004750Y+006210
X-033464Y+012908
X-036102Y+012913
X-032485Y+001929
X-032958Y+008976
X-032485Y+008976
X-030438Y+007874
X-029926Y+007874
X-033470Y+008976
X-033470Y+001929
X-030438Y+001929
X-029926Y+001929
X-032958Y+001141
X-032485Y+001141
X-030438Y+000039
X-029926Y+000039
X-033470Y+001141
X-034454Y-005905
X-033470Y-005905
X-030438Y-005905
X-029926Y-005905
X-038020Y+001020
X-038020Y+002120
X-032958Y+001929
X-038020Y+008790
X-038020Y+007670
X-038020Y+006470
X-038020Y+005380
X-038020Y+004320
X-038020Y+003180
X-038020Y-000090
X-038020Y-001280
X-038020Y-002520
X-038020Y-003800
X-035570Y+009870
X-035570Y+008830
X-038030Y+009890
X-010460Y-002590
X-010770Y+008900
X-006420Y+011080
X-017189Y+006025
X-021211Y+006779
X-016850Y+005118
X-032958Y-005905
X-032485Y-005905
X-018110Y+005590
X-017283Y+005590
X-001705Y+014168
X-012430Y-002952
X-009940Y-002952
X-027283Y+011338
X-028818Y+010314
X-025866Y+009803
X-030092Y+010407
X-027874Y+008188
X-021811Y-001811
X-013748Y+000118
X-021496Y-000275
X-025118Y+000669
X-025708Y+004251
X-025708Y+003346
X-025708Y+002440
X-025708Y+001535
X-000320Y+013710
X-000330Y+011650
X-000330Y+009720
X-000337Y+007897
X-027047Y+008503
X-027047Y+007598
X-027047Y+006692
X-038045Y+011195
X-038094Y+014624
X-036100Y+013660
X-025077Y+010458
X-024171Y+010458
X-023266Y+010458
X-025100Y+009450
X-025039Y+008464
X-010393Y-001815
X-009488Y-001815
X-008582Y-001815
X-007677Y-001815
X-008390Y+010096
X-009259Y+010089
X-005039Y-001815
X-004133Y-001815
X-017677Y+001412
X-019488Y+000113
X-018582Y+000113
X-017677Y+000113
X-024450Y-001771
X-026220Y-002007
X-034460Y+001570
X-012250Y+002520
X-007900Y-000120
X-007770Y+001240
X-009040Y+001260
X-004070Y+002730
X-002860Y+005090
X-010080Y+007930
X-020800Y+007950
X-020660Y+007120
X-020780Y+005440
X-018950Y+004020
X-018910Y+002700
X-023156Y+002024
X-019226Y-002545
X-023276Y-001015
X-022765Y-003300
X-021860Y-003300
X-027518Y-002766
X-026612Y-002766
X-029168Y-004936
X-028262Y-004936
X-029158Y-005646
X-028252Y-005646
X-027310Y+000603
X-026692Y-000156
X-031706Y+001534
X-028476Y-001245
X-036286Y-005765
X-036976Y+000644
X-036976Y-000145
X-036846Y+008394
X-029276Y+008514
X-030996Y+011164
X-030996Y+011984
X-032336Y+013604
X-029466Y+012854
X-028536Y+011554
X-025694Y+011685
X-023576Y+003354
X-022586Y+003324
X-027188Y+004916
X-027188Y+004010
X-027188Y+003105
X-027898Y+005006
X-027898Y+004100
X-027898Y+003195
X-027500Y-000300
X-027500Y-002030
X-029052Y+000113
X-034740Y+000590
X-031260Y-000380
X-033970Y+001140
X-030180Y-000610
X-034493Y+008976
X-031880Y+009120
X-030220Y+009060
X-030826Y+003385
X-030950Y+007874
X-027283Y+009803
X-023150Y-001771
X-005065Y+004545
X-031180Y-004320
X-004480Y+001380
X-005600Y+003430
X-022060Y+011430
X-016850Y+010790
X-015370Y+009280
X-016100Y+010040
X-015740Y+005995
X-015740Y+005090
X-015740Y+004184
X-015740Y+003278
X-015750Y+007804
X-015750Y+006898
X-009480Y+000640
X-013960Y+003740
X-020050Y+011400
X-021380Y+011350
X-021170Y+010740
X-020070Y+010760
X-014620Y+003180
X-011830Y+003130
X-009000Y-005025
X-009000Y-004120
X-001705Y+012200
X-001720Y+010370
X-001719Y+008380
X-003370Y+007196
X-004239Y+007189
X-008880Y+012956
X-009750Y+012949
X-003740Y+011926
X-004610Y+011919
X-004776Y+013420
X-014810Y+011396
X-015680Y+011389
X-019044Y+010166
X-019914Y+010159
X-016480Y+008270
X-012927Y+008907
X-013797Y+008900
X-000897Y+002940
X-000861Y+005518
X-000881Y-000511
X-003269Y+001774
X-002950Y+003534
X-036046Y+000654
X-028996Y-003575
X-029096Y+004044
X-019228Y-001056
X-021020Y+004566
X-007951Y+006838
X-007100Y+008120
X-008940Y+005746
X-025760Y-005670
X-024765Y-005685
X-023750Y-005680
X-022765Y-005685
X-026760Y-005680
X-019110Y-003150
X-013180Y+000088
X-011848Y+001420
X-010150Y+001420
X-006260Y+001380
X-006370Y-003510
X-020775Y-003235
T02
X-034157Y+005649
X-033724Y+005649
X-032858Y+005649
X-032425Y+005649
X-031992Y+005649
X-031559Y+005649
X-031126Y+005649
X-030693Y+005649
X-030260Y+005649
X-034157Y+006082
X-033724Y+006082
X-033291Y+006082
X-032858Y+006082
X-031559Y+006082
X-031126Y+006082
X-030693Y+006082
X-030260Y+006082
X-034157Y+005216
X-033724Y+005216
X-033291Y+005216
X-032425Y+005216
X-031992Y+005216
X-031559Y+005216
X-031126Y+005216
X-030693Y+005216
X-030260Y+005216
X-034157Y+004783
X-033724Y+004783
X-032858Y+004783
X-031559Y+004783
X-031126Y+004783
X-030693Y+004783
X-030260Y+004783
X-034149Y-002164
X-033716Y-002164
X-033283Y-002164
X-032850Y-002164
X-032417Y-002164
X-031984Y-002164
X-031551Y-002164
X-031118Y-002164
X-030685Y-002164
X-030252Y-002164
X-034149Y-001731
X-033716Y-001731
X-033283Y-001731
X-032850Y-001731
X-031551Y-001731
X-031118Y-001731
X-030685Y-001731
X-030252Y-001731
X-034149Y-002597
X-033716Y-002597
X-033283Y-002597
X-032850Y-002597
X-032417Y-002597
X-031984Y-002597
X-031551Y-002597
X-031118Y-002597
X-030685Y-002597
X-030252Y-002597
X-034149Y-003030
X-033716Y-003030
X-033283Y-003030
X-032850Y-003030
X-031551Y-003030
X-031118Y-003030
X-030685Y-003030
X-030252Y-003030
X-034149Y-001297
X-033716Y-001297
X-033283Y-001297
X-032850Y-001297
X-031551Y-001297
X-031118Y-001297
X-030685Y-001297
X-030252Y-001297
X-034149Y-003463
X-033716Y-003463
X-033283Y-003463
X-032850Y-003463
X-031551Y-003463
X-031118Y-003463
X-030685Y-003463
X-030252Y-003463
X-032417Y-001731
X-031984Y-001731
X-032417Y-003030
X-031984Y-003030
X-034157Y+006515
X-033724Y+006515
X-033291Y+006515
X-032858Y+006515
X-031559Y+006515
X-031126Y+006515
X-030693Y+006515
X-030260Y+006515
X-034157Y+004350
X-033724Y+004350
X-032858Y+004350
X-031559Y+004350
X-031126Y+004350
X-030693Y+004350
X-030260Y+004350
X-032425Y+006082
X-031992Y+006082
X-032425Y+004783
X-031992Y+004783
X-033291Y+005649
X-032858Y+005216
X-033291Y+004783
X-033291Y+004350
X-012440Y+014488
X-017874Y-000944
X-013940Y+001692
T03
X-027997Y+001771
X-036659Y+006456
X-036659Y+004606
X-036659Y-001377
X-036659Y-003228
X-037600Y-005180
T04
X-012170Y-000120
X-011170Y-000120
X-010170Y-000120
X-009170Y-000120
X-006730Y-000120
X-005730Y-000120
X-004730Y-000120
X-003730Y-000120
X-031196Y+013779
X-030196Y+013779
X-029196Y+013779
X-013270Y+014070
X-013270Y+013070
X-014270Y+014070
X-014270Y+013070
X-015270Y+014070
X-015270Y+013070
X-016270Y+014070
X-016270Y+013070
X-017270Y+014070
X-017270Y+013070
X-018270Y+014070
X-018270Y+013070
X-019270Y+014070
X-019270Y+013070
X-020270Y+014070
X-020270Y+013070
X-022270Y+014070
X-022270Y+013070
X-023270Y+014070
X-023270Y+013070
X-024270Y+014070
X-024270Y+013070
X-025270Y+014070
X-025270Y+013070
X-026270Y+014070
X-026270Y+013070
X-027270Y+014070
X-027270Y+013070
X-009810Y-004090
X-009810Y-005090
X-010810Y-004090
X-010810Y-005090
X-011810Y-004090
X-011810Y-005090
X-012810Y-004090
X-012810Y-005090
X-013810Y-004090
X-013810Y-005090
X-014810Y-004090
X-014810Y-005090
X-015810Y-004090
X-015810Y-005090
X-016810Y-004090
X-016810Y-005090
X-017810Y-004090
X-017810Y-005090
X-018810Y-004090
X-018810Y-005090
X-020274Y-004090
X-020274Y-005090
X-021274Y-004090
X-021274Y-005090
X-022274Y-004090
X-022274Y-005090
X-023274Y-004090
X-023274Y-005090
X-024274Y-004090
X-024274Y-005090
X-025274Y-004090
X-025274Y-005090
X-026274Y-004090
X-026274Y-005090
X-027274Y-004090
X-027274Y-005090
X-015677Y-001377
X-014677Y-001377
X-013677Y-001377
X-012677Y-001377
X-023740Y+006874
X-023740Y+007874
X-023740Y+008874
X-007984Y+013543
X-006984Y+013543
X-005984Y+013543
T05
X-012910Y+006690
X-005390Y-004740
M30
